<?xml version="1.0" standalone="no"?>
<!DOCTYPE svg PUBLIC "-//W3C//DTD SVG 20010904//EN"
 "http://www.w3.org/TR/2001/REC-SVG-20010904/DTD/svg10.dtd">
<svg version="1.0" xmlns="http://www.w3.org/2000/svg"
 width="260.000000pt" height="260.000000pt" viewBox="0 0 260.000000 260.000000"
 preserveAspectRatio="xMidYMid meet">
<metadata>
Created by potrace 1.11, written by Peter Selinger 2001-2013
</metadata>
<g transform="translate(0.000000,260.000000) scale(0.100000,-0.100000)"
fill="#000000" stroke="none">
<path d="M773 2026 c-4 -5 -6 -260 -6 -568 0 -307 -4 -558 -8 -558 -4 0 -6 -9
-4 -20 2 -11 0 -20 -6 -20 -5 0 -8 -3 -8 -7 4 -23 -2 -43 -11 -38 -5 3 -10 1
-10 -4 0 -14 -36 -50 -52 -54 -7 -1 -18 -7 -25 -14 -7 -6 -26 -10 -42 -9 -16
1 -28 -1 -26 -4 2 -4 -11 -6 -30 -6 -19 1 -35 4 -35 7 0 3 -7 6 -15 6 -44 0
-128 78 -128 119 0 7 -4 14 -9 14 -4 0 -7 3 -7 8 1 4 0 9 -1 12 -1 3 -3 23 -4
45 -2 22 -4 42 -6 45 -1 3 -3 12 -4 20 -1 11 -10 14 -36 11 -19 -2 -45 -4 -57
-5 -13 0 -23 -3 -23 -7 0 -3 -13 -5 -29 -3 -25 3 -28 0 -25 -21 1 -14 -3 -25
-9 -25 -8 0 -8 -3 -2 -8 14 -10 17 -32 4 -32 -8 0 -8 -4 0 -14 6 -7 12 -30 13
-50 1 -20 5 -36 10 -36 4 0 8 -13 8 -28 0 -15 6 -34 12 -41 7 -6 13 -15 13
-19 1 -12 45 -78 45 -67 0 5 13 -5 29 -22 16 -18 32 -29 35 -26 3 4 6 1 6 -5
0 -7 9 -12 20 -12 11 0 20 -4 20 -8 0 -7 16 -11 58 -14 6 -1 12 -4 12 -8 0 -5
25 -8 95 -10 43 -2 135 6 141 13 4 4 14 7 22 7 21 0 128 56 152 80 11 11 17
20 13 20 -3 0 3 8 14 17 38 34 78 144 75 206 0 9 4 17 11 17 8 0 8 3 -1 12 -6
6 -8 18 -3 27 4 9 7 257 7 551 l-1 534 -93 1 c-52 0 -96 -4 -99 -9z"/>
<path d="M1282 2030 c-11 -8 -9 -44 3 -52 7 -5 7 -8 -1 -8 -13 0 -13 -82 1
-92 7 -5 7 -8 0 -8 -14 0 -14 -110 0 -110 7 0 6 -3 0 -8 -6 -4 -11 -29 -11
-57 0 -27 5 -53 11 -57 7 -5 7 -8 0 -8 -14 0 -14 -110 0 -110 7 0 6 -3 0 -8
-6 -4 -11 -29 -11 -57 0 -27 5 -53 11 -57 7 -5 7 -8 -1 -8 -13 0 -13 -90 1
-90 7 0 6 -3 0 -8 -14 -9 -14 -85 0 -94 7 -5 7 -8 0 -8 -14 0 -14 -110 0 -110
7 0 6 -3 0 -8 -6 -4 -11 -29 -11 -57 0 -27 5 -53 11 -57 7 -5 7 -8 0 -8 -14 0
-14 -110 0 -110 7 0 6 -3 0 -8 -14 -9 -14 -105 0 -114 7 -5 7 -8 0 -8 -14 0
-14 -110 0 -110 5 0 3 -4 -4 -9 -12 -8 -10 -11 10 -15 23 -5 624 -1 624 4 0 1
20 4 45 6 25 3 51 5 58 6 6 1 12 5 12 9 0 4 8 6 18 4 9 -1 23 3 31 9 12 9 13
8 7 -4 -4 -8 0 -6 9 5 9 11 18 18 21 16 9 -7 74 22 74 33 0 5 3 7 6 3 10 -10
124 94 124 113 0 6 4 10 8 10 5 0 19 14 31 31 13 18 17 29 10 25 -8 -4 -7 -1
3 6 9 8 18 23 20 33 1 11 5 22 8 25 13 13 30 52 30 68 0 10 3 22 8 26 4 4 7
11 8 14 0 4 6 33 13 64 7 32 10 62 6 68 -3 5 -2 10 3 10 4 0 8 17 7 38 -1 20
3 43 8 50 6 8 6 12 0 12 -11 0 -9 42 2 59 3 6 2 11 -3 11 -10 0 -9 30 2 48 4
6 3 12 -2 12 -5 0 -8 12 -7 28 1 15 -2 33 -8 40 -6 8 -6 12 2 12 9 0 9 5 1 20
-6 11 -8 25 -5 30 3 6 2 10 -4 10 -6 0 -8 6 -5 14 3 8 1 17 -4 20 -6 3 -8 15
-5 26 3 13 0 20 -8 20 -11 0 -11 2 1 10 10 6 11 10 3 10 -7 0 -13 7 -13 15 0
8 -5 15 -11 15 -5 0 -8 4 -4 9 3 6 -8 34 -24 64 -16 30 -28 58 -25 61 2 3 1 4
-2 2 -8 -6 -33 17 -28 26 2 3 -7 15 -21 26 -14 11 -25 25 -25 31 0 6 -6 11
-14 11 -8 0 -16 7 -20 15 -3 8 -13 15 -21 15 -9 0 -13 5 -10 10 3 6 -1 10 -9
10 -9 0 -24 8 -34 18 -10 10 -24 16 -30 14 -7 -2 -12 2 -12 8 0 6 -6 10 -12 7
-7 -2 -19 3 -26 12 -10 12 -12 13 -6 1 7 -13 5 -13 -9 -1 -9 7 -17 11 -17 7 0
-3 -11 -1 -24 4 -13 5 -53 12 -88 16 -74 8 -665 12 -676 4z m668 -180 c3 -1 8
-2 13 -1 4 0 7 -3 7 -8 0 -5 8 -8 17 -7 30 5 104 -42 159 -98 29 -30 50 -57
47 -60 -4 -3 3 -15 15 -26 19 -18 27 -39 23 -62 0 -5 4 -8 10 -8 5 0 9 -10 7
-22 -2 -13 2 -22 7 -21 6 1 11 -13 11 -30 4 -83 11 -147 17 -153 3 -3 3 -16
-1 -28 -9 -25 -8 -69 2 -84 3 -6 2 -13 -3 -16 -5 -4 -8 -17 -6 -31 1 -14 -1
-25 -5 -25 -5 0 -7 -8 -5 -17 1 -10 -2 -26 -7 -35 -6 -13 -5 -18 4 -18 11 0
10 -2 0 -9 -7 -4 -14 -18 -15 -29 -1 -12 -5 -22 -10 -22 -4 0 -6 -4 -3 -8 6
-10 -45 -113 -75 -150 -10 -14 -34 -35 -52 -48 -17 -13 -38 -28 -44 -34 -7 -6
-13 -9 -13 -6 0 3 -16 -2 -35 -10 -56 -23 -86 -26 -322 -29 l-221 -3 0 547 c0
300 4 548 9 551 8 5 458 5 469 0z"/>
</g>
</svg>
