<?xml version="1.0" standalone="no"?>
<!DOCTYPE svg PUBLIC "-//W3C//DTD SVG 20010904//EN"
 "http://www.w3.org/TR/2001/REC-SVG-20010904/DTD/svg10.dtd">
<svg version="1.0" xmlns="http://www.w3.org/2000/svg"
 width="400.000000pt" height="400.000000pt" viewBox="0 0 400.000000 400.000000"
 preserveAspectRatio="xMidYMid meet">
<metadata>
Created by potrace 1.11, written by Peter Selinger 2001-2013
</metadata>
<g transform="translate(0.000000,400.000000) scale(0.100000,-0.100000)"
fill="#000000" stroke="none">
<path d="M1080 2310 c0 -908 -3 -981 -39 -1078 -22 -60 -79 -123 -143 -157
-70 -37 -207 -47 -291 -20 -130 41 -207 164 -223 357 -4 55 -11 89 -19 92 -33
12 -273 -25 -286 -45 -18 -27 4 -248 31 -314 7 -16 16 -39 20 -50 16 -45 63
-132 84 -156 37 -43 135 -119 179 -138 107 -48 154 -56 342 -56 180 0 222 7
297 46 10 5 23 9 29 9 24 0 148 91 189 137 80 93 113 172 144 343 14 73 16
212 16 1003 l0 917 -165 0 -165 0 0 -890z"/>
<path d="M1920 1990 l0 -1211 558 4 c306 3 584 9 617 14 101 17 263 69 326
105 140 80 289 242 356 388 49 107 99 253 113 327 4 27 13 75 20 108 16 78 9
538 -9 610 -37 146 -46 176 -69 240 -33 90 -77 176 -126 245 -78 110 -220 232
-331 284 -22 10 -48 22 -57 27 -27 14 -96 30 -175 42 -40 5 -73 14 -73 19 0 4
-259 8 -575 8 l-575 0 0 -1210z m1084 899 c146 -26 246 -71 329 -148 36 -32
137 -174 158 -221 64 -141 95 -322 92 -545 -4 -285 -66 -507 -188 -670 -39
-52 -41 -54 -105 -102 -79 -58 -133 -79 -295 -114 -84 -18 -710 -25 -731 -9
-12 11 -14 141 -14 910 0 493 3 900 7 903 11 12 682 8 747 -4z"/>
</g>
</svg>
